<svg xmlns="http://www.w3.org/2000/svg" xmlns:xlink="http://www.w3.org/1999/xlink" width="396" zoomAndPan="magnify" viewBox="0 0 297 107.999999" height="144" preserveAspectRatio="xMidYMid meet" version="1.0"><defs><g/><clipPath id="d53383dc52"><path d="M 110.179688 0 L 186.316406 0 L 186.316406 45 L 110.179688 45 Z M 110.179688 0 " clip-rule="nonzero"/></clipPath></defs><g clip-path="url(#d53383dc52)"><path fill="#000000" d="M 110.75 40.90625 C 111.675781 37.8125 111.460938 33.460938 115.128906 32.226562 C 115.148438 27.214844 115.128906 22.203125 115.136719 17.199219 C 113.847656 16.46875 111.417969 16.359375 111.410156 14.453125 C 112.019531 13.632812 113.015625 13.292969 113.914062 12.914062 C 124.144531 8.976562 134.359375 5 144.578125 1.035156 C 147.304688 0.00390625 150.421875 0.0195312 153.160156 1.015625 C 162.929688 4.765625 172.667969 8.609375 182.441406 12.34375 C 184.015625 13.007812 186.019531 13.320312 186.679688 15.152344 C 185.761719 15.796875 184.804688 16.386719 183.746094 16.773438 C 179.121094 18.554688 174.5 20.347656 169.878906 22.136719 C 170.4375 24.476562 170.125 27.121094 169.914062 29.53125 C 168.652344 32.941406 164.785156 34.183594 161.636719 35.179688 C 154.085938 37.160156 146.070312 37.226562 138.425781 35.730469 C 135.097656 34.964844 131.5625 33.988281 129.066406 31.511719 C 126.867188 29.160156 127.894531 25.640625 127.710938 22.738281 C 127.691406 22.480469 127.738281 22.269531 127.824219 22.089844 C 124.664062 20.867188 121.5 19.644531 118.339844 18.414062 C 118.332031 23.023438 118.367188 27.628906 118.347656 32.234375 C 121.800781 33.332031 121.761719 37.324219 122.589844 40.234375 C 123.101562 41.761719 123.347656 44.078125 121.4375 44.703125 C 118.386719 44.988281 115.277344 44.914062 112.21875 44.746094 C 110.527344 44.34375 110.183594 42.328125 110.75 40.90625 Z M 131.066406 28.921875 C 132.644531 30.808594 135.148438 31.476562 137.402344 32.164062 C 144.601562 33.945312 152.222656 33.988281 159.46875 32.398438 C 162.007812 31.695312 164.921875 31.070312 166.675781 28.9375 C 167.160156 27.109375 166.824219 25.179688 166.894531 23.296875 C 162.441406 25.023438 157.992188 26.75 153.539062 28.476562 C 150.585938 29.644531 147.171875 29.648438 144.214844 28.457031 C 139.78125 26.71875 135.339844 25 130.898438 23.28125 C 131 25.152344 130.703125 27.066406 131.066406 28.921875 Z M 119.574219 41.625 C 119.15625 39.589844 118.664062 37.5625 118.132812 35.554688 C 117.226562 35.515625 116.332031 35.480469 115.425781 35.445312 C 114.839844 37.488281 114.328125 39.550781 113.882812 41.625 C 115.785156 41.617188 117.679688 41.625 119.574219 41.625 Z M 119.574219 41.625 " fill-opacity="1" fill-rule="nonzero"/></g><g fill="#000000" fill-opacity="1"><g transform="translate(51.908915, 78.613466)"><g><path d="M 2.8125 -25.015625 L 11.578125 -25.015625 L 11.578125 0 L 2.8125 0 Z M 7.203125 -27.78125 C 5.597656 -27.78125 4.300781 -28.226562 3.3125 -29.125 C 2.332031 -30.019531 1.84375 -31.128906 1.84375 -32.453125 C 1.84375 -33.773438 2.332031 -34.878906 3.3125 -35.765625 C 4.300781 -36.660156 5.597656 -37.109375 7.203125 -37.109375 C 8.796875 -37.109375 10.082031 -36.6875 11.0625 -35.84375 C 12.050781 -35 12.546875 -33.914062 12.546875 -32.59375 C 12.546875 -31.207031 12.050781 -30.054688 11.0625 -29.140625 C 10.082031 -28.234375 8.796875 -27.78125 7.203125 -27.78125 Z M 7.203125 -27.78125 "/></g></g></g><g fill="#000000" fill-opacity="1"><g transform="translate(63.309827, 78.613466)"><g><path d="M 14.578125 0.640625 C 11.960938 0.640625 9.425781 0.316406 6.96875 -0.328125 C 4.507812 -0.972656 2.507812 -1.832031 0.96875 -2.90625 L 3.96875 -9.640625 C 5.414062 -8.691406 7.09375 -7.925781 9 -7.34375 C 10.90625 -6.757812 12.78125 -6.46875 14.625 -6.46875 C 18.132812 -6.46875 19.890625 -7.34375 19.890625 -9.09375 C 19.890625 -10.019531 19.390625 -10.703125 18.390625 -11.140625 C 17.390625 -11.585938 15.78125 -12.054688 13.5625 -12.546875 C 11.132812 -13.078125 9.101562 -13.640625 7.46875 -14.234375 C 5.84375 -14.835938 4.441406 -15.800781 3.265625 -17.125 C 2.097656 -18.445312 1.515625 -20.234375 1.515625 -22.484375 C 1.515625 -24.453125 2.050781 -26.226562 3.125 -27.8125 C 4.207031 -29.394531 5.816406 -30.644531 7.953125 -31.5625 C 10.097656 -32.488281 12.722656 -32.953125 15.828125 -32.953125 C 17.953125 -32.953125 20.046875 -32.710938 22.109375 -32.234375 C 24.171875 -31.765625 25.988281 -31.066406 27.5625 -30.140625 L 24.734375 -23.359375 C 21.660156 -25.015625 18.675781 -25.84375 15.78125 -25.84375 C 13.96875 -25.84375 12.644531 -25.570312 11.8125 -25.03125 C 10.976562 -24.5 10.5625 -23.800781 10.5625 -22.9375 C 10.5625 -22.070312 11.054688 -21.425781 12.046875 -21 C 13.035156 -20.570312 14.617188 -20.125 16.796875 -19.65625 C 19.265625 -19.132812 21.304688 -18.570312 22.921875 -17.96875 C 24.535156 -17.375 25.929688 -16.421875 27.109375 -15.109375 C 28.296875 -13.804688 28.890625 -12.03125 28.890625 -9.78125 C 28.890625 -7.84375 28.347656 -6.085938 27.265625 -4.515625 C 26.191406 -2.953125 24.578125 -1.703125 22.421875 -0.765625 C 20.273438 0.171875 17.660156 0.640625 14.578125 0.640625 Z M 14.578125 0.640625 "/></g></g></g><g fill="#000000" fill-opacity="1"><g transform="translate(90.128219, 78.613466)"><g><path d="M 19.34375 0.640625 C 15.957031 0.640625 12.914062 -0.0703125 10.21875 -1.5 C 7.53125 -2.925781 5.414062 -4.914062 3.875 -7.46875 C 2.332031 -10.03125 1.5625 -12.925781 1.5625 -16.15625 C 1.5625 -19.382812 2.332031 -22.273438 3.875 -24.828125 C 5.414062 -27.378906 7.53125 -29.367188 10.21875 -30.796875 C 12.914062 -32.234375 15.957031 -32.953125 19.34375 -32.953125 C 22.289062 -32.953125 24.945312 -32.425781 27.3125 -31.375 C 29.6875 -30.332031 31.660156 -28.828125 33.234375 -26.859375 L 27.421875 -21.59375 C 25.328125 -24.125 22.785156 -25.390625 19.796875 -25.390625 C 18.046875 -25.390625 16.484375 -25.003906 15.109375 -24.234375 C 13.742188 -23.460938 12.679688 -22.375 11.921875 -20.96875 C 11.171875 -19.570312 10.796875 -17.96875 10.796875 -16.15625 C 10.796875 -14.34375 11.171875 -12.734375 11.921875 -11.328125 C 12.679688 -9.929688 13.742188 -8.847656 15.109375 -8.078125 C 16.484375 -7.304688 18.046875 -6.921875 19.796875 -6.921875 C 22.785156 -6.921875 25.328125 -8.179688 27.421875 -10.703125 L 33.234375 -5.453125 C 31.660156 -3.484375 29.6875 -1.972656 27.3125 -0.921875 C 24.945312 0.117188 22.289062 0.640625 19.34375 0.640625 Z M 19.34375 0.640625 "/></g></g></g><g fill="#000000" fill-opacity="1"><g transform="translate(121.147176, 78.613466)"><g><path d="M 33.96875 -32.3125 L 33.96875 0 L 24.828125 0 L 24.828125 -12.59375 L 12.375 -12.59375 L 12.375 0 L 3.234375 0 L 3.234375 -32.3125 L 12.375 -32.3125 L 12.375 -20.171875 L 24.828125 -20.171875 L 24.828125 -32.3125 Z M 33.96875 -32.3125 "/></g></g></g><g fill="#000000" fill-opacity="1"><g transform="translate(155.305019, 78.613466)"><g><path d="M 19.53125 0.640625 C 16.113281 0.640625 13.039062 -0.078125 10.3125 -1.515625 C 7.59375 -2.960938 5.453125 -4.960938 3.890625 -7.515625 C 2.335938 -10.078125 1.5625 -12.957031 1.5625 -16.15625 C 1.5625 -19.351562 2.335938 -22.226562 3.890625 -24.78125 C 5.453125 -27.332031 7.59375 -29.332031 10.3125 -30.78125 C 13.039062 -32.226562 16.113281 -32.953125 19.53125 -32.953125 C 22.9375 -32.953125 26 -32.226562 28.71875 -30.78125 C 31.445312 -29.332031 33.585938 -27.332031 35.140625 -24.78125 C 36.703125 -22.226562 37.484375 -19.351562 37.484375 -16.15625 C 37.484375 -12.957031 36.703125 -10.078125 35.140625 -7.515625 C 33.585938 -4.960938 31.445312 -2.960938 28.71875 -1.515625 C 26 -0.078125 22.9375 0.640625 19.53125 0.640625 Z M 19.53125 -6.921875 C 21.15625 -6.921875 22.628906 -7.304688 23.953125 -8.078125 C 25.273438 -8.847656 26.320312 -9.929688 27.09375 -11.328125 C 27.863281 -12.734375 28.25 -14.34375 28.25 -16.15625 C 28.25 -17.96875 27.863281 -19.570312 27.09375 -20.96875 C 26.320312 -22.375 25.273438 -23.460938 23.953125 -24.234375 C 22.628906 -25.003906 21.15625 -25.390625 19.53125 -25.390625 C 17.894531 -25.390625 16.414062 -25.003906 15.09375 -24.234375 C 13.769531 -23.460938 12.722656 -22.375 11.953125 -20.96875 C 11.179688 -19.570312 10.796875 -17.96875 10.796875 -16.15625 C 10.796875 -14.34375 11.179688 -12.734375 11.953125 -11.328125 C 12.722656 -9.929688 13.769531 -8.847656 15.09375 -8.078125 C 16.414062 -7.304688 17.894531 -6.921875 19.53125 -6.921875 Z M 19.53125 -6.921875 "/></g></g></g><g fill="#000000" fill-opacity="1"><g transform="translate(191.309263, 78.613466)"><g><path d="M 3.234375 -32.3125 L 12.375 -32.3125 L 12.375 -7.25 L 27.78125 -7.25 L 27.78125 0 L 3.234375 0 Z M 3.234375 -32.3125 "/></g></g></g><g fill="#000000" fill-opacity="1"><g transform="translate(216.419727, 78.613466)"><g><path d="M 3.234375 -32.3125 L 12.375 -32.3125 L 12.375 -7.25 L 27.78125 -7.25 L 27.78125 0 L 3.234375 0 Z M 3.234375 -32.3125 "/></g></g></g><g fill="#000000" fill-opacity="1"><g transform="translate(80.379991, 101.2481)"><g><path d="M 6.359375 -4.3125 L 8.4375 -4.3125 L 8.4375 -0.890625 C 7.957031 -0.546875 7.410156 -0.28125 6.796875 -0.09375 C 6.179688 0.0820312 5.570312 0.171875 4.96875 0.171875 C 4.09375 0.171875 3.304688 -0.0078125 2.609375 -0.375 C 1.921875 -0.75 1.378906 -1.257812 0.984375 -1.90625 C 0.597656 -2.5625 0.40625 -3.304688 0.40625 -4.140625 C 0.40625 -4.960938 0.597656 -5.695312 0.984375 -6.34375 C 1.378906 -7 1.925781 -7.507812 2.625 -7.875 C 3.332031 -8.25 4.128906 -8.4375 5.015625 -8.4375 C 5.785156 -8.4375 6.476562 -8.304688 7.09375 -8.046875 C 7.707031 -7.785156 8.21875 -7.410156 8.625 -6.921875 L 7.140625 -5.578125 C 6.578125 -6.191406 5.90625 -6.5 5.125 -6.5 C 4.414062 -6.5 3.84375 -6.28125 3.40625 -5.84375 C 2.976562 -5.414062 2.765625 -4.847656 2.765625 -4.140625 C 2.765625 -3.679688 2.863281 -3.269531 3.0625 -2.90625 C 3.257812 -2.550781 3.535156 -2.269531 3.890625 -2.0625 C 4.242188 -1.863281 4.648438 -1.765625 5.109375 -1.765625 C 5.554688 -1.765625 5.972656 -1.859375 6.359375 -2.046875 Z M 6.359375 -4.3125 "/></g></g></g><g fill="#000000" fill-opacity="1"><g transform="translate(91.498036, 101.2481)"><g><path d="M 7.46875 -1.8125 L 7.46875 0 L 0.828125 0 L 0.828125 -8.265625 L 7.3125 -8.265625 L 7.3125 -6.46875 L 3.140625 -6.46875 L 3.140625 -5.0625 L 6.8125 -5.0625 L 6.8125 -3.3125 L 3.140625 -3.3125 L 3.140625 -1.8125 Z M 7.46875 -1.8125 "/></g></g></g><g fill="#000000" fill-opacity="1"><g transform="translate(101.458465, 101.2481)"><g><path d="M 4.4375 -2.203125 L 3.171875 -2.203125 L 3.171875 0 L 0.828125 0 L 0.828125 -8.265625 L 4.609375 -8.265625 C 5.359375 -8.265625 6.003906 -8.140625 6.546875 -7.890625 C 7.097656 -7.648438 7.523438 -7.296875 7.828125 -6.828125 C 8.128906 -6.367188 8.28125 -5.828125 8.28125 -5.203125 C 8.28125 -4.609375 8.140625 -4.085938 7.859375 -3.640625 C 7.578125 -3.203125 7.175781 -2.851562 6.65625 -2.59375 L 8.453125 0 L 5.9375 0 Z M 5.921875 -5.203125 C 5.921875 -5.585938 5.796875 -5.882812 5.546875 -6.09375 C 5.304688 -6.3125 4.945312 -6.421875 4.46875 -6.421875 L 3.171875 -6.421875 L 3.171875 -4 L 4.46875 -4 C 4.945312 -4 5.304688 -4.101562 5.546875 -4.3125 C 5.796875 -4.519531 5.921875 -4.816406 5.921875 -5.203125 Z M 5.921875 -5.203125 "/></g></g></g><g fill="#000000" fill-opacity="1"><g transform="translate(112.222145, 101.2481)"><g><path d="M 7.46875 -1.8125 L 7.46875 0 L 0.828125 0 L 0.828125 -8.265625 L 7.3125 -8.265625 L 7.3125 -6.46875 L 3.140625 -6.46875 L 3.140625 -5.0625 L 6.8125 -5.0625 L 6.8125 -3.3125 L 3.140625 -3.3125 L 3.140625 -1.8125 Z M 7.46875 -1.8125 "/></g></g></g><g fill="#000000" fill-opacity="1"><g transform="translate(122.182573, 101.2481)"><g><path d="M 8.6875 -8.265625 L 8.6875 0 L 6.765625 0 L 3.125 -4.40625 L 3.125 0 L 0.828125 0 L 0.828125 -8.265625 L 2.75 -8.265625 L 6.40625 -3.859375 L 6.40625 -8.265625 Z M 8.6875 -8.265625 "/></g></g></g><g fill="#000000" fill-opacity="1"><g transform="translate(133.725867, 101.2481)"><g><path d="M 4.953125 0.171875 C 4.085938 0.171875 3.304688 -0.0078125 2.609375 -0.375 C 1.921875 -0.75 1.378906 -1.257812 0.984375 -1.90625 C 0.597656 -2.5625 0.40625 -3.304688 0.40625 -4.140625 C 0.40625 -4.960938 0.597656 -5.695312 0.984375 -6.34375 C 1.378906 -7 1.921875 -7.507812 2.609375 -7.875 C 3.304688 -8.25 4.085938 -8.4375 4.953125 -8.4375 C 5.703125 -8.4375 6.378906 -8.300781 6.984375 -8.03125 C 7.597656 -7.757812 8.101562 -7.375 8.5 -6.875 L 7.015625 -5.53125 C 6.484375 -6.175781 5.832031 -6.5 5.0625 -6.5 C 4.613281 -6.5 4.210938 -6.398438 3.859375 -6.203125 C 3.515625 -6.003906 3.242188 -5.722656 3.046875 -5.359375 C 2.859375 -5.003906 2.765625 -4.597656 2.765625 -4.140625 C 2.765625 -3.671875 2.859375 -3.253906 3.046875 -2.890625 C 3.242188 -2.535156 3.515625 -2.257812 3.859375 -2.0625 C 4.210938 -1.863281 4.613281 -1.765625 5.0625 -1.765625 C 5.832031 -1.765625 6.484375 -2.085938 7.015625 -2.734375 L 8.5 -1.390625 C 8.101562 -0.890625 7.597656 -0.503906 6.984375 -0.234375 C 6.378906 0.0351562 5.703125 0.171875 4.953125 0.171875 Z M 4.953125 0.171875 "/></g></g></g><g fill="#000000" fill-opacity="1"><g transform="translate(144.465912, 101.2481)"><g><path d="M 0.828125 -8.265625 L 3.171875 -8.265625 L 3.171875 0 L 0.828125 0 Z M 0.828125 -8.265625 "/></g></g></g><g fill="#000000" fill-opacity="1"><g transform="translate(150.4928, 101.2481)"><g><path d="M 6.359375 -1.609375 L 2.875 -1.609375 L 2.21875 0 L -0.171875 0 L 3.484375 -8.265625 L 5.78125 -8.265625 L 9.453125 0 L 7.015625 0 Z M 5.6875 -3.328125 L 4.625 -5.984375 L 3.5625 -3.328125 Z M 5.6875 -3.328125 "/></g></g></g><g fill="#000000" fill-opacity="1"><g transform="translate(161.799842, 101.2481)"><g><path d="M 8.296875 0 L 8.265625 -4.375 L 6.140625 -0.8125 L 5.109375 -0.8125 L 2.984375 -4.265625 L 2.984375 0 L 0.828125 0 L 0.828125 -8.265625 L 2.75 -8.265625 L 5.65625 -3.5 L 8.5 -8.265625 L 10.421875 -8.265625 L 10.4375 0 Z M 8.296875 0 "/></g></g></g><g fill="#000000" fill-opacity="1"><g transform="translate(175.091382, 101.2481)"><g><path d="M 7.46875 -1.8125 L 7.46875 0 L 0.828125 0 L 0.828125 -8.265625 L 7.3125 -8.265625 L 7.3125 -6.46875 L 3.140625 -6.46875 L 3.140625 -5.0625 L 6.8125 -5.0625 L 6.8125 -3.3125 L 3.140625 -3.3125 L 3.140625 -1.8125 Z M 7.46875 -1.8125 "/></g></g></g><g fill="#000000" fill-opacity="1"><g transform="translate(185.051815, 101.2481)"><g><path d="M 8.6875 -8.265625 L 8.6875 0 L 6.765625 0 L 3.125 -4.40625 L 3.125 0 L 0.828125 0 L 0.828125 -8.265625 L 2.75 -8.265625 L 6.40625 -3.859375 L 6.40625 -8.265625 Z M 8.6875 -8.265625 "/></g></g></g><g fill="#000000" fill-opacity="1"><g transform="translate(196.595115, 101.2481)"><g><path d="M 2.59375 -6.421875 L 0.046875 -6.421875 L 0.046875 -8.265625 L 7.453125 -8.265625 L 7.453125 -6.421875 L 4.921875 -6.421875 L 4.921875 0 L 2.59375 0 Z M 2.59375 -6.421875 "/></g></g></g><g fill="#000000" fill-opacity="1"><g transform="translate(206.118487, 101.2481)"><g><path d="M 5 0.171875 C 4.125 0.171875 3.335938 -0.0078125 2.640625 -0.375 C 1.941406 -0.75 1.394531 -1.265625 1 -1.921875 C 0.601562 -2.578125 0.40625 -3.316406 0.40625 -4.140625 C 0.40625 -4.953125 0.601562 -5.6875 1 -6.34375 C 1.394531 -7 1.941406 -7.507812 2.640625 -7.875 C 3.335938 -8.25 4.125 -8.4375 5 -8.4375 C 5.875 -8.4375 6.660156 -8.25 7.359375 -7.875 C 8.054688 -7.507812 8.601562 -7 9 -6.34375 C 9.394531 -5.6875 9.59375 -4.953125 9.59375 -4.140625 C 9.59375 -3.316406 9.394531 -2.578125 9 -1.921875 C 8.601562 -1.265625 8.054688 -0.75 7.359375 -0.375 C 6.660156 -0.0078125 5.875 0.171875 5 0.171875 Z M 5 -1.765625 C 5.414062 -1.765625 5.789062 -1.863281 6.125 -2.0625 C 6.46875 -2.257812 6.738281 -2.535156 6.9375 -2.890625 C 7.132812 -3.253906 7.234375 -3.671875 7.234375 -4.140625 C 7.234375 -4.597656 7.132812 -5.003906 6.9375 -5.359375 C 6.738281 -5.722656 6.46875 -6.003906 6.125 -6.203125 C 5.789062 -6.398438 5.414062 -6.5 5 -6.5 C 4.582031 -6.5 4.203125 -6.398438 3.859375 -6.203125 C 3.523438 -6.003906 3.257812 -5.722656 3.0625 -5.359375 C 2.863281 -5.003906 2.765625 -4.597656 2.765625 -4.140625 C 2.765625 -3.671875 2.863281 -3.253906 3.0625 -2.890625 C 3.257812 -2.535156 3.523438 -2.257812 3.859375 -2.0625 C 4.203125 -1.863281 4.582031 -1.765625 5 -1.765625 Z M 5 -1.765625 "/></g></g></g></svg>